<svg version="1.1" viewBox="0.0 0.0 504.0 360.0" fill="none" stroke="none" stroke-linecap="square" stroke-miterlimit="10" xmlns:xlink="http://www.w3.org/1999/xlink" xmlns="http://www.w3.org/2000/svg"><clipPath id="p.0"><path d="m0 0l504.0 0l0 360.0l-504.0 0l0 -360.0z" clip-rule="nonzero"/></clipPath><g clip-path="url(#p.0)"><path fill="#000000" fill-opacity="0.0" d="m0 0l504.0 0l0 360.0l-504.0 0z" fill-rule="evenodd"/><defs><linearGradient id="p.1" gradientUnits="userSpaceOnUse" gradientTransform="matrix(15.58218379083091 0.0 0.0 15.58218379083091 0.0 0.0)" spreadMethod="pad" x1="8.091541510969579" y1="6.971955863986534" x2="8.091484925465672" y2="22.5541396547147"><stop offset="0.0" stop-color="#3366ff"/><stop offset="1.0" stop-color="#7bc7f9"/></linearGradient></defs><path fill="url(#p.1)" d="m126.08388 351.44275l60.70079 -242.80316l299.2047 0l-60.700775 242.80316z" fill-rule="evenodd"/><path stroke="#1f2937" stroke-width="16.0" stroke-linejoin="round" stroke-linecap="butt" d="m126.08388 351.44275l60.70079 -242.80316l299.2047 0l-60.700775 242.80316z" fill-rule="evenodd"/><defs><linearGradient id="p.2" gradientUnits="userSpaceOnUse" gradientTransform="matrix(15.582184284309134 0.0 0.0 15.582184284309134 0.0 0.0)" spreadMethod="pad" x1="4.623732314082192" y1="3.760528703946302" x2="4.623675728580076" y2="19.34271298815269"><stop offset="0.0" stop-color="#3366ff"/><stop offset="1.0" stop-color="#7bc7f9"/></linearGradient></defs><path fill="url(#p.2)" d="m72.047844 301.4017l60.700783 -242.80315l299.20474 0l-60.700806 242.80315z" fill-rule="evenodd"/><path stroke="#1f2937" stroke-width="16.0" stroke-linejoin="round" stroke-linecap="butt" d="m72.047844 301.4017l60.700783 -242.80315l299.20474 0l-60.700806 242.80315z" fill-rule="evenodd"/><defs><linearGradient id="p.3" gradientUnits="userSpaceOnUse" gradientTransform="matrix(15.582183708584239 0.0 0.0 15.582183708584239 0.0 0.0)" spreadMethod="pad" x1="1.1559234161576033" y1="0.5491026074553758" x2="1.155866995146142" y2="16.131286315937466"><stop offset="0.0" stop-color="#3366ff"/><stop offset="1.0" stop-color="#7bc7f9"/></linearGradient></defs><path fill="url(#p.3)" d="m18.01181 251.36067l60.70079 -242.80315l299.2047 0l-60.700806 242.80315z" fill-rule="evenodd"/><path stroke="#1f2937" stroke-width="16.0" stroke-linejoin="round" stroke-linecap="butt" d="m18.01181 251.36067l60.70079 -242.80315l299.2047 0l-60.700806 242.80315z" fill-rule="evenodd"/><path fill="#ffffff" d="m110.918686 84.643654l4.614174 -18.456696l187.6063 0l-4.6141663 18.456696z" fill-rule="evenodd"/><path fill="#ffffff" d="m97.34904 134.28712l4.6141663 -18.456696l187.60632 0l-4.614197 18.456696z" fill-rule="evenodd"/><path fill="#ffffff" d="m83.56036 183.93059l4.614174 -18.456696l187.6063 0l-4.6141663 18.456696z" fill-rule="evenodd"/></g></svg>