<svg version="1.1" viewBox="0.0 0.0 960.0 720.0" fill="none" stroke="none" stroke-linecap="square" stroke-miterlimit="10" xmlns:xlink="http://www.w3.org/1999/xlink" xmlns="http://www.w3.org/2000/svg"><clipPath id="p.0"><path d="m0 0l960.0 0l0 720.0l-960.0 0l0 -720.0z" clip-rule="nonzero"/></clipPath><g clip-path="url(#p.0)"><path fill="#000000" fill-opacity="0.0" d="m0 0l960.0 0l0 720.0l-960.0 0z" fill-rule="evenodd"/><defs><linearGradient id="p.1" gradientUnits="userSpaceOnUse" gradientTransform="matrix(11.516536738066405 0.0 0.0 11.516536738066405 0.0 0.0)" spreadMethod="pad" x1="16.863764882806972" y1="27.28763251116711" x2="16.863722150690936" y2="38.80416924915424"><stop offset="0.0" stop-color="#3366ff"/><stop offset="1.0" stop-color="#7bc7f9"/></linearGradient></defs><path fill="url(#p.1)" d="m194.21216 446.88968l33.15747 -132.62994l163.44095 0l-33.15747 132.62994z" fill-rule="evenodd"/><path stroke="#1f2937" stroke-width="8.0" stroke-linejoin="round" stroke-linecap="butt" d="m194.21216 446.88968l33.15747 -132.62994l163.44095 0l-33.15747 132.62994z" fill-rule="evenodd"/><defs><linearGradient id="p.2" gradientUnits="userSpaceOnUse" gradientTransform="matrix(11.516537628317156 0.0 0.0 11.516537628317156 0.0 0.0)" spreadMethod="pad" x1="14.300652286246883" y1="24.914009321231763" x2="14.300610444386496" y2="36.430546949472905"><stop offset="0.0" stop-color="#3366ff"/><stop offset="1.0" stop-color="#7bc7f9"/></linearGradient></defs><path fill="url(#p.2)" d="m164.694 419.55377l33.157486 -132.62994l163.44093 0l-33.15747 132.62994z" fill-rule="evenodd"/><path stroke="#1f2937" stroke-width="8.0" stroke-linejoin="round" stroke-linecap="butt" d="m164.694 419.55377l33.157486 -132.62994l163.44093 0l-33.15747 132.62994z" fill-rule="evenodd"/><defs><linearGradient id="p.3" gradientUnits="userSpaceOnUse" gradientTransform="matrix(11.516537628315554 0.0 0.0 11.516537628315554 0.0 0.0)" spreadMethod="pad" x1="11.737542773794935" y1="22.540386460181903" x2="11.737501822186898" y2="34.056924088424644"><stop offset="0.0" stop-color="#3366ff"/><stop offset="1.0" stop-color="#7bc7f9"/></linearGradient></defs><path fill="url(#p.3)" d="m135.17586 392.21783l33.15747 -132.62991l163.44096 0l-33.1575 132.62991z" fill-rule="evenodd"/><path stroke="#1f2937" stroke-width="8.0" stroke-linejoin="round" stroke-linecap="butt" d="m135.17586 392.21783l33.15747 -132.62991l163.44096 0l-33.1575 132.62991z" fill-rule="evenodd"/><path fill="#000000" fill-opacity="0.0" d="m400.042 259.58792l403.40155 0l0 179.21262l-403.40155 0z" fill-rule="evenodd"/><path fill="#ffffff" d="m408.82324 375.59424l11.078125 -52.0625l22.875 0q4.25 0 7.21875 2.171875q2.96875 2.15625 4.546875 5.609375q1.578125 3.4375 1.578125 7.25q0 2.5625 -0.734375 5.09375q-0.734375 2.53125 -2.09375 4.875q-1.359375 2.34375 -3.265625 4.375q-1.90625 2.015625 -4.25 3.546875l6.234375 19.140625l-16.125 0l-5.0625 -15.984375l-4.328125 0l-3.375 15.984375l-14.296875 0zm28.296875 -28.453125q0.59375 0 1.328125 -0.515625q0.734375 -0.515625 1.390625 -1.46875q0.65625 -0.953125 1.09375 -2.265625q0.453125 -1.328125 0.453125 -2.859375q0 -1.328125 -0.34375 -2.203125q-0.328125 -0.875 -0.84375 -1.34375q-0.5 -0.484375 -1.09375 -0.484375l-7.546875 0l-2.34375 11.140625l7.90625 0zm43.273834 -23.609375l13.125 0l5.796875 52.0625l-14.53125 0l-0.515625 -10.1875l-12.453125 0l-4.765625 10.1875l-14.59375 0l27.9375 -52.0625zm3.65625 32.34375l-0.578125 -16.140625l-7.5625 16.140625l8.140625 0zm30.371002 -32.34375l21.40625 0q4.171875 0 7.171875 2.171875q3.015625 2.15625 4.59375 5.609375q1.578125 3.4375 1.578125 7.25q0 3.8125 -1.609375 7.5625q-1.609375 3.734375 -4.484375 6.78125q-2.859375 3.03125 -6.59375 4.875q-3.734375 1.828125 -7.984375 1.828125l-7.484375 0l-3.375 15.984375l-14.296875 0l11.078125 -52.0625zm15.765625 23.609375q0.65625 0 1.390625 -0.4375q0.734375 -0.4375 1.421875 -1.359375q0.703125 -0.921875 1.09375 -2.3125q0.40625 -1.390625 0.40625 -3.296875q0 -1.46875 -0.359375 -2.265625q-0.359375 -0.8125 -0.875 -1.140625q-0.515625 -0.328125 -1.109375 -0.328125l-6.078125 0l-2.34375 11.140625l6.453125 0zm28.377808 -23.609375l14.296875 0l-11.078125 52.0625l-14.296875 0l11.078125 -52.0625zm23.244995 0l19.203125 0q6.890625 0 11.359375 2.71875q4.484375 2.703125 6.671875 7.296875q2.203125 4.578125 2.203125 10.296875q0 6.890625 -2.34375 12.6875q-2.34375 5.796875 -6.59375 10.09375q-4.25 4.28125 -9.96875 6.625q-5.71875 2.34375 -12.40625 2.34375l-19.203125 0l11.078125 -52.0625zm10.765625 39.59375q3.09375 0 5.65625 -1.390625q2.5625 -1.390625 4.390625 -3.765625q1.84375 -2.390625 2.859375 -5.5q1.03125 -3.125 1.03125 -6.578125q0 -3.0 -0.921875 -5.203125q-0.90625 -2.203125 -2.75 -3.4375q-1.828125 -1.25 -4.46875 -1.25l-4.90625 0l-5.796875 27.125l4.90625 0zm40.05072 -39.59375l34.015625 0l-2.640625 12.46875l-19.71875 0l-1.84375 8.65625l15.984375 0l-2.40625 11.578125l-16.0625 0l-4.109375 19.359375l-14.296875 0l11.078125 -52.0625zm40.03705 0l14.296875 0l-11.078125 52.0625l-14.296875 0l11.078125 -52.0625zm12.16687 52.0625l11.078125 -52.0625l22.875 0q4.25 0 7.21875 2.171875q2.96875 2.15625 4.546875 5.609375q1.578125 3.4375 1.578125 7.25q0 2.5625 -0.734375 5.09375q-0.734375 2.53125 -2.09375 4.875q-1.359375 2.34375 -3.265625 4.375q-1.90625 2.015625 -4.25 3.546875l6.234375 19.140625l-16.125 0l-5.0625 -15.984375l-4.328125 0l-3.375 15.984375l-14.296875 0zm28.296875 -28.453125q0.59375 0 1.328125 -0.515625q0.734375 -0.515625 1.390625 -1.46875q0.65625 -0.953125 1.09375 -2.265625q0.453125 -1.328125 0.453125 -2.859375q0 -1.328125 -0.34375 -2.203125q-0.328125 -0.875 -0.84375 -1.34375q-0.5 -0.484375 -1.09375 -0.484375l-7.546875 0l-2.34375 11.140625l7.90625 0zm30.664429 -23.609375l34.75 0l-2.640625 12.46875l-20.453125 0l-1.546875 7.328125l17.453125 0l-2.484375 11.59375l-17.453125 0l-1.765625 8.203125l21.125 0l-2.640625 12.46875l-35.421875 0l11.078125 -52.0625z" fill-rule="nonzero"/><path fill="#ffffff" d="m185.92789 301.1479l2.5196838 -10.078735l102.48819 0l-2.5196838 10.078735z" fill-rule="evenodd"/><path fill="#ffffff" d="m178.51523 328.26663l2.5196838 -10.078735l102.48819 0l-2.5196838 10.078735z" fill-rule="evenodd"/><path fill="#ffffff" d="m170.98293 355.38535l2.5196838 -10.078735l102.488174 0l-2.5196838 10.078735z" fill-rule="evenodd"/><defs><linearGradient id="p.4" gradientUnits="userSpaceOnUse" gradientTransform="matrix(17.631833905286108 0.0 0.0 17.631833905286108 0.0 0.0)" spreadMethod="pad" x1="21.278322778771933" y1="22.916520629877965" x2="33.745890001553036" y2="35.38413204542309"><stop offset="0.0" stop-color="#3366ff"/><stop offset="1.0" stop-color="#7bc7f9"/></linearGradient></defs><path fill="url(#p.4)" d="m393.30185 394.99738l385.2756 0l0 -9.062988l18.125977 18.125977l-18.125977 18.125977l0 -9.062988l-385.2756 0z" fill-rule="evenodd"/><path fill="#1f2937" d="m355.8714 437.7454l12.952759 -51.811005l40.968506 0l-12.952759 51.811005z" fill-rule="evenodd"/><path fill="#76c0f9" d="m768.1627 422.18634l10.553711 -36.251953l0.97387695 36.251953z" fill-rule="evenodd"/><path fill="#1f2937" d="m755.18286 425.79602l41.2359 -20.511536l22.291687 26.117859l-41.2359 20.511536z" fill-rule="evenodd"/><path fill="#1f2937" d="m805.2011 415.9342l-32.13385 -32.259857l14.716553 -21.850403l32.13385 32.259857z" fill-rule="evenodd"/></g></svg>